<svg width="1465" height="758" viewBox="0 0 1465 758" fill="none" xmlns="http://www.w3.org/2000/svg">
<path fill-rule="evenodd" clip-rule="evenodd" d="M1284.94 322.674C1284.94 324.096 1283.87 326.939 1281.39 331.203C1278.9 335.467 1276.41 340.087 1273.57 345.062C1270.73 350.038 1267.89 354.302 1265.05 358.566C1262.21 362.831 1260.43 365.318 1259.72 365.674C1258.3 367.451 1256.88 368.872 1255.46 369.938C1254.04 371.004 1253.33 372.07 1253.33 372.781C1253.33 373.492 1254.04 374.203 1255.82 375.269C1257.59 376.335 1259.72 377.045 1261.85 377.756C1256.53 382.021 1251.2 386.996 1245.52 392.326C1239.83 397.657 1233.8 402.987 1227.4 408.318C1221.72 413.293 1214.97 418.979 1207.87 425.02C1200.77 431.061 1193.66 436.747 1186.92 442.078C1180.17 447.408 1174.49 451.673 1169.51 454.871C1164.54 458.425 1161.7 460.202 1160.64 460.202C1159.57 460.202 1159.21 458.425 1159.21 455.226C1159.21 449.896 1162.06 442.433 1167.38 432.127C1172.71 422.177 1180.52 410.805 1190.47 398.368C1197.93 388.773 1206.09 379.178 1215.33 369.583C1224.21 359.988 1233.09 351.459 1241.61 343.996C1250.13 336.534 1257.95 330.492 1264.69 325.872C1271.44 321.253 1276.77 318.765 1280.32 318.765C1283.16 318.054 1284.94 319.476 1284.94 322.674ZM1387.22 365.318C1389 361.765 1389.35 358.922 1387.93 357.145C1386.87 355.368 1385.45 354.657 1384.74 354.657C1383.32 356.434 1381.18 358.922 1377.99 362.12C1374.79 365.318 1371.24 369.227 1366.62 373.492C1362.01 377.756 1357.39 382.731 1352.06 387.707C1346.73 393.037 1341.76 398.012 1336.44 402.987C1326.85 411.516 1317.61 419.334 1309.09 426.086C1300.56 432.838 1294.17 436.037 1290.62 436.037C1287.78 436.037 1286 434.97 1285.29 433.194C1284.58 431.061 1283.87 428.929 1283.87 426.086C1283.87 422.888 1284.58 418.979 1286 414.714C1287.42 410.45 1288.84 405.83 1290.62 401.566C1292.4 396.946 1293.82 392.682 1295.24 388.417C1296.66 384.153 1297.37 380.599 1297.37 377.756C1297.37 373.136 1295.95 369.583 1293.46 367.806C1290.98 365.674 1287.42 364.963 1283.52 364.963C1281.74 364.963 1279.26 365.674 1275.7 367.451C1277.84 364.252 1279.97 360.343 1282.45 356.079C1284.94 351.814 1287.07 347.55 1288.84 343.285C1290.62 339.021 1292.4 335.112 1293.46 331.914C1294.53 328.36 1295.24 325.517 1295.24 323.74C1295.24 315.922 1292.75 310.236 1288.13 306.683C1283.52 303.129 1277.84 301.352 1270.73 301.352C1262.56 301.352 1253.68 304.195 1244.1 309.526C1234.51 314.856 1224.92 322.319 1215.68 331.203C1206.09 340.087 1197.22 350.037 1188.34 361.054C1179.46 372.07 1172 383.797 1165.25 395.169C1158.5 406.896 1153.18 418.268 1148.92 429.285C1144.65 440.301 1142.88 449.896 1142.88 458.425C1142.88 463.4 1143.94 468.02 1146.07 471.929C1148.2 475.838 1151.05 477.97 1154.6 477.97C1157.08 477.97 1160.64 476.193 1165.96 472.639C1171.29 469.086 1176.62 464.821 1183.01 460.202C1189.05 455.226 1195.44 450.251 1201.83 444.565C1208.23 439.235 1213.55 434.26 1218.17 430.351C1222.79 426.442 1227.4 422.177 1232.73 417.557C1238.06 412.938 1243.03 409.029 1247.65 405.12C1252.26 401.21 1256.17 398.012 1259.37 395.525C1262.56 392.682 1264.34 391.616 1264.69 391.616C1265.4 391.616 1266.12 391.971 1266.47 392.682C1266.83 393.392 1267.18 394.103 1266.83 395.169C1266.12 396.591 1265.05 400.5 1263.98 406.541C1262.92 412.938 1262.21 418.268 1262.21 422.533C1262.21 431.061 1263.63 438.524 1266.47 444.565C1269.31 450.607 1273.57 453.45 1279.97 453.45C1284.23 453.45 1288.84 452.028 1294.53 449.185C1299.85 446.342 1305.54 442.789 1310.86 438.88C1316.19 434.97 1321.16 430.706 1326.49 426.442C1331.46 422.177 1335.72 418.268 1339.63 415.425C1343.18 412.582 1347.44 408.318 1352.42 403.343C1357.74 398.012 1362.72 393.037 1367.69 387.707C1372.66 382.376 1376.92 377.756 1380.83 373.847C1384.38 368.872 1386.51 366.029 1387.22 365.318ZM855.915 389.128C851.298 393.748 846.681 398.368 841.709 402.987C832.12 411.516 822.886 419.334 814.362 426.086C805.839 432.838 799.446 436.037 795.895 436.037C793.053 436.037 791.278 434.97 790.567 433.194C789.857 431.061 789.147 428.929 789.147 426.086C789.147 422.888 789.857 418.979 791.278 414.714C792.698 410.45 794.119 405.83 795.895 401.566C797.67 396.946 799.091 392.682 800.511 388.417C801.932 384.153 802.642 380.599 802.642 377.756C802.642 373.136 801.222 369.583 798.736 367.806C796.25 365.674 792.698 364.963 788.792 364.963C787.016 364.963 784.53 365.674 780.978 367.451C783.109 364.252 785.24 360.343 787.726 356.079C790.212 351.814 792.343 347.55 794.119 343.285C795.895 339.021 797.67 335.112 798.736 331.914C799.801 328.36 800.511 325.517 800.511 323.74C800.511 315.922 798.025 310.236 793.408 306.683C788.792 303.129 783.109 301.352 776.006 301.352C767.838 301.352 758.959 304.195 749.37 309.526C739.781 314.856 730.192 322.319 720.602 331.203C711.013 340.087 702.135 350.037 693.256 361.054C684.377 372.07 676.919 383.797 670.171 395.169C663.423 406.896 658.096 418.268 653.834 429.285C649.572 440.301 647.796 449.896 647.796 458.425C647.796 463.4 648.862 468.02 650.993 471.929C653.124 475.838 655.965 477.97 659.516 477.97C662.002 477.97 665.554 476.193 670.881 472.639C676.208 469.086 681.536 464.821 687.928 460.202C693.966 455.226 700.359 450.251 706.752 444.565C713.144 439.235 718.472 434.26 723.089 430.351C727.705 426.442 732.322 422.177 737.65 417.557C742.977 412.938 747.949 409.029 752.566 405.12C757.183 401.21 761.09 398.012 764.286 395.525C767.482 392.682 769.258 391.616 769.613 391.616C770.324 391.616 771.034 391.971 771.389 392.682C771.744 393.392 772.099 394.103 771.744 395.169C771.034 396.591 769.968 400.5 768.903 406.541C767.838 412.938 767.127 418.268 767.127 422.533C767.127 431.061 768.548 438.524 771.389 444.565C774.23 450.607 778.492 453.45 784.885 453.45C789.147 453.45 793.764 452.028 799.446 449.185C804.773 446.342 810.456 442.789 815.783 438.88C821.11 434.97 826.438 430.706 831.41 426.442C834.251 423.954 837.092 421.466 839.578 419.69C839.223 421.111 838.868 422.533 838.868 423.599C838.868 431.061 840.999 436.747 845.616 441.012C850.233 445.276 854.85 447.408 859.467 447.408C862.663 447.408 867.28 445.987 872.962 442.789C879 439.59 885.748 435.681 893.206 431.061C900.664 426.442 908.122 421.466 915.581 415.781C923.039 410.45 930.142 405.12 936.535 400.144C942.927 395.169 948.61 390.905 952.871 387.351C957.133 383.797 959.619 381.665 960.33 380.954C962.105 379.533 963.171 380.244 963.881 382.376C960.33 390.905 956.423 399.789 952.161 408.673C947.899 417.557 943.282 426.442 938.665 435.326C911.319 443.499 882.196 454.16 852.008 467.309C821.821 480.458 791.988 495.738 762.865 512.441C734.809 528.432 708.527 545.49 682.956 563.258H702.49C722.733 549.044 743.687 535.54 765.352 522.746C793.053 506.399 821.11 491.829 849.167 478.681C877.579 465.532 904.571 454.871 930.852 447.053C915.936 471.573 899.599 495.738 881.131 519.193C862.663 542.647 843.84 563.969 824.662 583.514C815.428 592.754 804.063 603.415 791.278 614.787C778.137 626.158 764.286 638.241 749.725 650.323C734.808 662.406 719.537 674.489 703.555 685.86C687.573 697.232 671.947 707.538 656.675 716.777C641.404 725.661 626.842 733.124 613.347 738.455C599.851 743.785 588.131 746.628 578.187 746.628C572.504 746.628 567.887 744.851 564.691 740.942C561.495 737.033 559.719 732.413 559.719 727.083C559.719 713.579 565.401 698.654 576.411 681.596C587.421 664.538 602.337 647.125 621.16 629.001C635.366 615.497 651.348 601.638 669.105 587.779H649.927C635.366 599.15 622.225 610.878 609.795 622.605C589.552 641.795 573.57 660.629 561.85 678.753C550.13 696.877 544.092 713.934 544.092 729.215C544.092 738.455 547.289 745.562 554.036 750.537C560.429 755.512 567.887 758 575.701 758C593.458 758 613.702 753.38 636.076 744.496C658.451 735.612 681.891 723.174 706.396 707.893C730.902 692.257 755.407 674.488 780.623 653.877C805.839 633.266 829.634 611.588 852.719 588.489C875.804 565.391 897.113 541.581 917.001 517.06C936.89 492.54 953.582 468.73 967.433 445.987C973.115 446.342 977.732 447.053 980.929 448.119C984.125 449.185 986.256 450.607 988.032 452.028C989.452 453.45 990.873 454.871 991.583 455.937C992.293 457.003 993.359 457.714 994.424 457.714C999.041 457.714 1001.17 454.871 1001.17 449.896C1001.17 444.921 998.686 441.012 993.359 438.524C988.387 436.037 981.994 434.615 974.181 433.904C983.77 416.491 991.228 400.144 996.555 384.508C1001.88 368.872 1004.37 354.657 1004.37 341.509C1004.37 333.335 1002.24 329.426 997.621 329.426C995.845 329.426 990.162 334.401 980.573 344.352C970.984 354.302 956.068 366.74 936.179 382.021C931.207 385.574 925.17 390.194 918.777 395.169C912.384 400.144 905.636 405.12 899.244 409.739C892.851 414.359 886.813 418.268 881.486 421.822C876.159 425.02 872.252 426.797 869.411 426.797C866.925 426.797 865.504 426.086 865.149 425.02C864.794 423.954 864.794 422.533 864.794 421.111C864.794 420.4 866.925 417.202 870.832 411.161C874.738 405.12 879 398.723 883.617 391.26C888.234 384.153 892.496 377.401 896.402 371.36C900.309 365.318 902.44 361.765 902.44 360.699C902.44 358.922 901.019 356.789 898.178 353.947C895.337 351.104 892.851 349.682 890.365 349.682C888.589 349.682 885.038 352.88 879.355 359.277C873.673 365.674 867.635 372.781 861.598 381.31C860.177 383.087 858.046 386.285 855.915 389.128ZM1163.83 356.789C1163.48 354.302 1163.12 351.814 1162.77 348.616C1162.41 345.418 1162.41 342.575 1162.41 339.732C1162.41 337.244 1161.35 334.401 1159.21 331.914C1157.08 329.426 1154.24 328.005 1150.34 328.005C1145.36 328.005 1142.52 329.426 1140.75 331.914C1139.33 334.757 1138.26 336.889 1138.26 338.31C1138.26 345.062 1136.13 352.525 1132.22 360.699C1128.32 368.872 1121.21 380.244 1111.27 394.458C1105.94 401.921 1100.97 408.673 1095.29 414.714C1089.96 420.756 1084.63 426.086 1079.66 430.706C1074.69 435.326 1070.07 438.879 1066.16 441.367C1061.9 443.855 1058.71 445.276 1056.22 445.276C1053.73 445.276 1051.96 444.565 1050.54 442.789C1049.12 441.012 1048.41 437.813 1048.41 433.194C1048.41 429.285 1050.18 422.533 1054.09 413.293C1058 404.053 1061.9 394.458 1066.16 384.153C1070.43 374.203 1074.33 364.963 1078.24 356.434C1082.15 347.905 1083.92 342.575 1083.92 340.087C1083.92 337.6 1083.57 335.112 1082.5 331.914C1081.79 329.071 1080.37 326.228 1079.31 323.385C1077.88 320.542 1076.46 318.41 1074.69 316.988C1072.91 315.211 1071.14 314.501 1069.72 314.501C1065.1 314.501 1060.13 319.476 1054.8 329.071C1049.47 338.666 1044.15 350.038 1039.17 362.475C1034.2 375.269 1029.94 387.351 1026.39 399.434C1022.84 411.516 1021.06 420.045 1021.06 425.02C1021.06 429.995 1022.13 434.97 1023.9 439.946C1025.68 444.921 1028.16 449.185 1031.36 453.094C1034.56 457.003 1037.75 460.202 1041.66 462.689C1045.57 465.177 1049.12 466.598 1053.02 466.598C1058.35 466.598 1064.39 464.111 1070.78 459.491C1077.17 454.871 1083.21 449.185 1088.89 442.789C1094.58 436.392 1100.26 429.64 1105.23 423.243C1110.2 416.847 1114.11 411.516 1116.95 407.607C1119.44 403.698 1121.92 399.434 1124.76 394.458C1127.61 389.839 1130.45 385.219 1132.93 381.31C1135.42 377.045 1137.91 373.492 1139.68 370.649C1141.46 367.806 1142.52 365.674 1142.88 365.318C1143.59 364.252 1145.72 363.897 1149.63 363.541C1153.53 363.541 1156.37 362.831 1158.86 362.12C1160.99 361.409 1162.06 360.699 1162.77 359.988C1164.19 359.632 1164.19 358.211 1163.83 356.789ZM789.857 322.674C789.857 324.096 788.792 326.939 786.305 331.203C783.819 335.467 781.333 340.087 778.492 345.062C775.651 350.038 772.81 354.302 769.969 358.566C767.127 362.831 765.352 365.318 764.641 365.674C763.221 367.451 761.8 368.872 760.379 369.938C758.959 371.004 758.248 372.07 758.248 372.781C758.248 373.492 758.959 374.203 760.734 375.269C762.51 376.335 764.641 377.045 766.772 377.756C761.445 382.021 756.118 386.996 750.435 392.326C744.753 397.657 738.715 402.987 732.322 408.318C726.64 413.293 719.892 418.979 712.789 425.02C705.686 431.061 698.583 436.747 691.835 442.078C685.087 447.408 679.405 451.673 674.433 454.871C669.461 458.425 666.619 460.202 665.554 460.202C664.489 460.202 664.133 458.425 664.133 455.226C664.133 449.896 666.975 442.433 672.302 432.127C677.629 422.177 685.443 410.805 695.387 398.368C702.845 388.773 711.013 379.178 720.247 369.583C729.126 359.988 738.005 351.459 746.528 343.996C755.052 336.534 762.865 330.492 769.613 325.872C776.361 321.253 781.689 318.765 785.24 318.765C788.436 318.054 789.857 319.476 789.857 322.674ZM378.236 245.559C363.32 262.617 348.404 279.319 332.777 295.311C317.15 311.658 301.879 326.939 286.962 341.509C272.046 356.079 257.84 369.583 244.344 381.665C230.848 393.748 218.773 404.409 208.119 413.293C197.819 422.177 189.296 429.285 182.548 434.26C176.155 439.235 171.893 441.722 170.828 441.722C169.052 441.722 168.342 441.722 169.052 441.367C169.407 441.367 169.762 440.301 169.762 438.524C169.762 433.904 175.445 424.665 187.165 410.45C198.885 396.591 214.512 380.244 233.69 361.765C253.223 343.286 275.242 323.74 300.458 303.129C325.674 282.873 351.6 263.683 378.236 245.559ZM586 207.535C586 193.32 582.093 181.238 574.635 171.998C567.177 162.759 554.747 158.139 537.699 158.139C527.045 158.139 515.325 159.916 502.184 163.469C489.044 167.023 475.548 171.998 460.987 178.395C475.193 156.362 486.202 136.106 494.371 117.627C502.539 99.1477 506.446 83.5115 506.446 70.7182C506.446 46.1978 498.278 28.0741 481.585 17.0577C464.538 5.68589 442.519 0 415.172 0C393.508 0 370.068 3.55368 345.207 10.661C320.347 17.7684 295.131 27.008 269.915 37.669C244.699 48.6854 220.194 60.4126 197.109 73.5612C173.669 86.7098 153.07 98.7923 135.313 110.519C117.555 122.247 102.994 132.197 92.3394 141.081C81.6848 149.61 76.0024 155.296 76.0024 158.139C76.0024 161.692 77.7782 164.18 80.9745 164.891C84.1709 165.602 87.0121 166.312 89.4982 166.312C93.0497 166.312 98.377 164.535 105.835 160.982C113.293 157.428 121.817 153.164 131.051 147.833C140.285 142.503 149.874 137.172 159.818 130.775C169.762 124.734 178.996 118.693 187.165 113.362C195.333 108.032 202.081 103.412 207.408 99.503C212.736 95.594 215.222 93.4618 215.222 92.7511C215.222 91.3296 214.512 90.2635 213.091 89.9081C211.67 89.1974 210.96 88.1313 210.96 86.3544C210.96 85.6437 214.156 83.1561 220.904 79.2471C227.652 74.9826 236.531 70.0075 247.541 64.3216C258.55 58.6357 270.981 52.5945 285.187 46.1978C299.393 39.8012 313.954 34.1153 328.87 28.4294C344.142 23.0989 359.058 18.4791 373.975 14.9255C388.891 11.3718 402.387 9.59494 414.817 9.59494C440.743 9.59494 459.566 14.2147 470.576 23.0989C481.585 31.9831 487.268 42.9995 487.268 55.4374C487.268 65.0323 485.492 75.6934 481.941 86.7098C478.389 97.7262 473.417 109.809 466.669 122.247C460.276 134.684 452.463 147.833 443.229 160.982C433.995 174.486 424.406 187.99 413.752 201.494C392.087 213.932 370.068 227.791 348.048 243.427C326.029 259.063 304.365 275.41 283.766 292.823C262.812 309.881 243.634 327.649 225.166 345.418C207.053 363.186 191.072 380.244 177.576 396.591C164.08 412.938 153.425 428.218 145.257 442.078C137.444 455.937 133.537 468.02 133.537 477.615C133.537 481.524 135.313 484.722 138.509 487.21C141.705 489.697 145.612 491.119 149.519 491.119C157.687 491.119 168.697 486.854 182.548 479.036C196.399 470.863 211.315 459.846 228.007 445.632C244.699 431.772 262.457 415.425 281.28 396.591C300.103 377.756 318.926 358.211 338.104 336.889C356.927 315.922 375.395 294.245 392.798 271.501C410.555 249.113 426.537 227.08 441.453 205.758C461.342 195.097 480.52 186.568 498.278 180.527C516.39 174.486 533.082 171.287 548.354 171.287C556.167 171.287 561.85 173.775 565.046 178.75C568.242 183.725 570.018 189.056 570.018 194.742C570.018 209.312 566.467 224.948 559.364 241.65C552.261 257.997 543.382 274.699 532.727 291.402C522.073 308.104 510.353 324.451 497.922 340.798C485.492 357.145 473.772 372.426 463.118 386.996C452.463 401.211 443.584 414.359 436.481 425.731C429.378 437.103 425.827 446.342 425.827 453.45C425.827 460.557 428.313 465.532 433.64 469.086C438.967 472.284 443.939 474.061 448.912 474.061C452.818 474.061 458.145 471.929 465.604 468.02C473.062 464.111 481.23 459.135 490.109 453.094C498.988 447.408 508.222 440.656 517.811 433.549C527.4 426.442 535.924 419.69 544.092 413.293C552.261 406.896 559.008 401.566 564.691 396.946C570.373 392.326 573.57 389.483 574.635 388.417C574.635 385.219 572.504 383.087 568.598 382.376C566.112 384.153 560.784 387.706 552.261 393.392C543.737 399.078 534.858 404.764 525.624 410.805C516.39 416.847 507.867 422.177 500.053 427.152C492.24 432.128 487.978 434.26 486.913 434.26C481.941 434.26 479.099 432.483 479.099 429.285C479.099 427.152 481.585 422.533 486.913 415.07C492.24 407.607 498.633 398.368 506.446 386.996C514.259 375.979 522.783 363.186 532.017 348.616C541.251 334.401 549.775 319.12 557.588 303.484C565.401 287.493 571.794 271.501 577.121 254.799C583.159 239.518 586 223.171 586 207.535ZM892.851 221.394H1158.86L1396.1 224.237L1158.86 227.436H892.851L655.61 224.593L892.851 221.394ZM427.958 567.878H831.765C828.213 571.432 824.662 574.985 821.11 578.539C820.4 579.25 819.335 580.316 818.624 581.027H427.958L0 576.052V573.209L427.958 567.878ZM880.065 567.878H1037.04L1465 573.209V576.052L1037.04 581.382H867.28C871.542 577.118 875.804 572.498 880.065 567.878ZM1040.95 196.874C1042.01 184.436 1051.6 166.312 1059.42 160.626C1064.74 171.287 1064.03 182.304 1064.03 194.386C1053.02 201.849 1053.73 205.047 1040.95 196.874ZM1064.39 104.123C1064.39 89.5527 1095.64 100.925 1066.88 119.759C1066.16 113.007 1064.39 111.941 1064.39 104.123ZM1061.9 93.1064C1059.77 101.28 1056.58 103.767 1058.35 111.941C1060.48 122.602 1063.32 121.181 1064.03 131.486C1100.26 108.032 1078.95 90.9742 1075.75 90.9742C1067.94 90.6188 1070.78 92.0403 1061.9 93.1064ZM945.768 97.3708C949.32 111.586 949.32 105.544 945.768 119.759C942.927 117.982 934.049 108.743 934.049 106.255C934.049 101.635 934.759 103.412 936.535 97.3708H945.768ZM927.301 106.61C933.693 118.338 936.89 124.023 948.255 131.486C948.255 131.486 967.078 90.9742 941.152 90.9742C930.142 90.6188 930.852 99.503 927.301 106.61ZM1008.63 83.8669C1018.93 83.8669 1008.63 105.9 1008.63 106.255C1002.24 101.635 1002.95 99.503 999.396 92.7511C1001.88 88.1313 1001.53 83.8669 1008.63 83.8669ZM1008.63 117.982C1020.35 96.3047 1026.03 95.9494 1013.25 77.4702C980.928 77.1149 994.424 108.743 1008.63 117.982ZM994.779 187.634C994.779 181.593 997.976 176.618 1000.46 170.577C1003.3 163.469 1003.66 162.048 1008.99 158.494C1011.12 167.734 1018.93 176.618 1020.71 194.742L1018.57 197.229C1018.22 197.585 1017.86 197.94 1017.51 198.295C1016.09 199.361 1016.8 199.361 1014.67 200.072C1008.63 202.56 994.779 205.047 994.779 187.634ZM948.255 185.502C948.255 175.196 952.161 170.577 952.871 160.626C964.947 168.444 971.339 184.081 971.339 199.006C968.143 199.717 948.255 207.535 948.255 185.502ZM1066.52 156.007C1066.52 146.412 1089.25 135.395 1096.35 131.131C1098.84 152.453 1100.61 151.387 1096.35 171.287C1093.51 183.37 1082.5 200.072 1069.01 201.138C1072.2 188.7 1072.91 190.477 1071.49 178.395C1068.65 153.164 1066.52 170.577 1066.52 156.007ZM915.581 138.238C915.581 127.222 925.17 134.684 932.273 140.015C956.423 158.85 947.189 151.742 943.282 169.511C940.086 184.791 939.731 189.767 945.768 201.138C915.581 198.651 915.581 160.626 915.581 138.238ZM1010.76 151.742C1017.15 142.503 1029.58 126.156 1038.46 120.114C1045.92 125.445 1052.31 142.858 1056.93 151.742C1052.67 158.139 1026.39 181.948 1035.98 201.494H1024.26C1026.39 191.899 1028.87 186.213 1020.35 169.155L1010.76 151.742ZM957.488 151.742C957.488 143.213 971.339 126.866 973.826 117.982C979.153 121.536 1001.53 146.767 1001.53 154.23L990.873 175.552C987.321 184.436 985.545 192.965 989.807 201.849H978.087C978.442 163.469 957.488 157.428 957.488 151.742ZM910.964 122.247C910.964 131.486 908.833 140.37 907.767 150.676C905.636 169.155 913.45 187.634 926.235 200.072C930.852 204.692 934.404 207.89 939.021 207.89H1076.11C1083.92 207.89 1093.87 193.676 1097.06 187.634C1109.49 163.469 1108.07 148.899 1101.68 122.247C1080.37 127.222 1073.98 138.949 1062.26 144.635C1055.87 133.263 1049.47 115.139 1039.17 108.387C1029.58 114.429 1014.31 134.329 1008.99 144.635C999.041 138.238 991.228 119.759 974.181 108.387C966.722 113.718 955.358 135.751 953.227 144.635C941.152 141.792 930.142 124.023 910.964 122.247ZM735.519 273.278L725.93 253.377V269.369C725.93 270.79 725.93 271.857 726.285 272.212C726.64 272.567 727.35 272.923 728.416 272.923H729.481V273.633H720.958V272.923H722.023C723.089 272.923 723.799 272.567 724.154 271.857C724.509 271.501 724.509 270.79 724.509 269.369V253.733C724.509 252.667 724.509 251.956 724.154 251.601C724.154 251.245 723.799 250.89 723.089 250.89C722.733 250.534 722.023 250.534 720.958 250.534V249.824H728.061L736.939 268.303L745.818 249.824H752.921V250.534H752.211C751.146 250.534 750.435 250.89 750.08 251.601C749.725 251.956 749.725 252.667 749.725 254.088V269.724C749.725 271.146 749.725 272.212 750.08 272.567C750.435 272.923 751.146 273.278 752.211 273.278H752.921V273.989H742.267V273.278H743.332C744.398 273.278 745.108 272.923 745.463 272.212C745.818 271.857 745.818 271.146 745.818 269.724V253.733L736.229 273.633H735.519V273.278ZM762.865 250.89V260.485H768.193C769.613 260.485 770.679 260.129 771.034 259.774C771.744 259.063 772.099 258.353 772.099 256.931H772.81V265.105H772.099C772.099 264.038 771.744 263.328 771.744 262.972C771.389 262.617 771.034 262.262 770.679 261.906C770.324 261.551 769.258 261.551 768.548 261.551H763.221V269.369C763.221 270.435 763.221 271.146 763.221 271.146C763.221 271.501 763.576 271.501 763.576 271.857C763.931 271.857 764.286 272.212 764.996 272.212H769.258C770.679 272.212 771.744 272.212 772.455 271.857C773.165 271.501 773.52 271.146 774.23 270.79C774.941 270.08 775.651 269.014 776.716 267.592H777.427L775.296 273.633H756.118V272.923H756.828C757.538 272.923 757.893 272.923 758.604 272.567C758.959 272.212 759.314 272.212 759.314 271.857C759.314 271.501 759.669 270.79 759.669 269.724V254.088C759.669 252.667 759.669 251.601 759.314 251.245C758.959 250.89 758.248 250.534 757.183 250.534H756.473V249.824H775.651L776.006 255.154H774.23C773.875 253.733 773.52 253.022 773.52 252.667C773.165 252.311 772.81 251.956 772.099 251.601C771.744 251.601 770.679 251.245 769.613 251.245H762.865V250.89ZM779.558 272.567H780.623C781.688 272.567 782.399 272.212 782.754 271.501C783.109 271.146 783.109 270.08 783.109 269.014V253.733C783.109 252.311 783.109 251.245 782.754 250.89C782.399 250.534 781.688 250.179 780.623 250.179H779.558V249.468H789.502C793.053 249.468 795.894 249.824 798.025 250.534C799.801 251.245 801.577 252.667 802.642 254.443C803.708 256.22 804.418 258.353 804.418 260.84C804.418 264.038 803.353 266.881 801.222 269.014C798.736 271.501 795.184 272.567 790.567 272.567H779.558ZM786.661 271.501C788.081 271.857 789.502 271.857 790.567 271.857C793.408 271.857 795.895 270.79 797.67 269.014C799.446 267.237 800.511 264.394 800.511 261.195C800.511 257.997 799.446 255.154 797.67 253.377C795.895 251.601 793.408 250.534 790.567 250.534C789.502 250.534 788.081 250.534 786.661 250.89V271.501ZM818.979 272.923V273.633H808.325V272.923H809.035C810.101 272.923 810.811 272.567 811.166 272.212C811.521 271.857 811.521 270.79 811.521 269.369V254.088C811.521 253.022 811.521 251.956 811.166 251.601C811.166 251.245 810.811 250.89 810.456 250.89C809.745 250.534 809.39 250.534 808.68 250.534H807.97V249.824H818.624V250.534H817.559C816.493 250.534 815.783 250.89 815.428 251.245C815.073 251.601 815.073 252.667 815.073 254.088V269.369C815.073 270.435 815.073 271.501 815.428 271.857C815.428 272.212 815.783 272.567 816.138 272.567C816.493 272.923 817.204 272.923 817.914 272.923H818.979ZM843.84 249.113L844.55 257.286H843.84C843.13 254.799 842.064 253.022 840.644 251.956C839.223 250.89 837.447 250.179 835.672 250.179C833.896 250.179 832.475 250.534 831.055 251.245C829.634 251.956 828.568 253.377 827.858 255.154C827.148 256.931 826.793 259.063 826.793 261.551C826.793 263.683 827.148 265.46 827.858 267.237C828.568 268.658 829.634 270.08 831.055 270.79C832.475 271.501 834.251 272.212 836.027 272.212C837.802 272.212 839.223 271.857 840.289 271.146C841.354 270.435 842.775 269.014 844.195 267.237L844.905 267.592C843.84 269.724 842.064 271.146 840.644 272.212C838.868 273.278 837.092 273.633 834.606 273.633C830.344 273.633 827.148 272.212 825.017 269.369C823.241 267.237 822.531 264.749 822.531 261.551C822.531 259.063 823.241 256.931 824.307 255.154C825.372 253.022 826.793 251.601 828.924 250.534C830.699 249.468 832.83 248.758 835.316 248.758C837.092 248.758 838.868 249.113 840.644 250.179C840.999 250.534 841.354 250.534 841.709 250.534C842.064 250.534 842.419 250.534 842.419 250.179C842.774 249.824 843.13 249.468 843.13 248.758H843.84V249.113ZM864.794 265.46H855.205L853.429 269.369C853.074 270.435 852.719 271.146 852.719 271.501C852.719 271.857 853.074 272.212 853.429 272.567C853.784 272.923 854.495 272.923 855.915 273.278V273.989H848.102V273.278C849.167 273.278 849.878 272.923 850.233 272.567C850.943 271.857 851.653 270.79 852.364 269.014L861.242 249.468H861.953L870.476 269.369C871.187 270.79 871.897 271.857 872.252 272.567C872.962 272.923 873.673 273.278 874.738 273.278V273.989H864.794V273.278C865.859 273.278 866.57 272.923 866.925 272.923C867.28 272.567 867.28 272.212 867.28 271.857C867.28 271.501 866.925 270.435 866.57 269.369L864.794 265.46ZM864.084 264.038L859.822 254.443L855.56 264.038H864.084ZM897.468 266.881H898.178L896.047 273.278H876.869V272.567H877.935C879 272.567 879.71 272.212 880.065 271.501C880.421 271.146 880.421 270.435 880.421 269.014V253.733C880.421 252.311 880.421 251.245 880.065 250.89C879.71 250.534 879 250.179 877.935 250.179H876.869V249.468H888.234V250.179C886.813 250.179 886.103 250.179 885.393 250.534C885.038 250.89 884.327 251.245 884.327 251.601C883.972 251.956 883.972 253.022 883.972 254.088V269.014C883.972 270.08 883.972 270.79 884.327 271.146C884.327 271.501 884.682 271.501 885.038 271.857C885.393 271.857 886.458 271.857 887.879 271.857H889.655C891.43 271.857 892.851 271.857 893.561 271.501C894.272 271.146 894.982 270.79 895.692 270.08C896.047 269.369 896.758 268.303 897.468 266.881ZM941.862 265.46H932.273L930.497 269.369C930.142 270.435 929.787 271.146 929.787 271.501C929.787 271.857 930.142 272.212 930.497 272.567C930.852 272.923 931.562 272.923 932.983 273.278V273.989H925.17V273.278C926.235 273.278 926.945 272.923 927.301 272.567C928.011 271.857 928.721 270.79 929.432 269.014L938.31 249.468H939.021L947.544 269.369C948.255 270.79 948.965 271.857 949.32 272.567C950.03 272.923 950.741 273.278 951.806 273.278V273.989H941.862V273.278C942.927 273.278 943.638 272.923 943.993 272.923C944.348 272.567 944.348 272.212 944.348 271.857C944.348 271.501 943.993 270.435 943.638 269.369L941.862 265.46ZM941.507 264.038L937.245 254.443L932.983 264.038H941.507ZM961.04 250.89V260.485H966.367C967.788 260.485 968.853 260.129 969.208 259.774C969.919 259.063 970.274 258.353 970.274 256.931H970.984V265.105H970.274C970.274 264.038 969.919 263.328 969.919 262.972C969.564 262.617 969.208 262.262 968.853 261.906C968.498 261.551 967.433 261.551 966.722 261.551H961.395V269.369C961.395 270.435 961.395 271.146 961.395 271.146C961.395 271.501 961.75 271.501 961.75 271.857C962.105 271.857 962.461 272.212 963.171 272.212H967.433C968.853 272.212 969.919 272.212 970.629 271.857C971.339 271.501 972.05 271.146 972.405 270.79C973.115 270.08 973.825 269.014 974.891 267.592H975.601L973.47 273.633H954.292V272.923H955.002C955.713 272.923 956.068 272.923 956.778 272.567C957.133 272.212 957.488 272.212 957.488 271.857C957.488 271.501 957.844 270.79 957.844 269.724V254.088C957.844 252.667 957.844 251.601 957.488 251.245C957.133 250.89 956.423 250.534 955.358 250.534H954.647V249.824H973.826L974.181 255.154H973.47C973.115 253.733 972.76 253.022 972.76 252.667C972.405 252.311 972.05 251.956 971.339 251.601C970.984 251.601 969.919 251.245 968.853 251.245H961.04V250.89ZM994.424 249.113V257.286H993.714C993.359 255.865 993.004 254.443 992.648 253.377C991.938 252.311 991.228 251.601 990.162 251.245C989.097 250.534 988.031 250.534 986.966 250.534C985.545 250.534 984.48 250.89 983.77 251.601C983.059 252.311 982.349 253.022 982.349 254.088C982.349 254.799 982.704 255.51 983.059 256.22C983.77 256.931 985.545 258.353 988.387 259.774C990.873 260.84 992.293 261.906 993.004 262.617C993.714 263.328 994.424 264.038 995.135 264.749C995.49 265.46 995.845 266.526 995.845 267.592C995.845 269.369 995.135 270.79 993.714 272.212C992.293 273.633 990.518 274.344 988.032 274.344C987.321 274.344 986.611 274.344 985.901 274.344C985.545 274.344 984.835 273.989 983.415 273.633C982.349 273.278 981.639 272.923 981.284 272.923C980.928 272.923 980.573 272.923 980.573 273.278C980.573 273.633 980.218 273.989 980.218 274.344H979.508V266.171H980.218C980.573 267.947 980.928 269.014 981.639 270.08C982.349 270.79 983.059 271.501 984.125 272.212C985.19 272.923 986.611 272.923 987.676 272.923C989.097 272.923 990.518 272.567 991.228 271.857C991.938 271.146 992.648 270.08 992.648 269.014C992.648 268.303 992.648 267.947 992.293 267.237C991.938 266.526 991.583 266.171 990.873 265.46C990.518 265.105 989.097 264.394 986.966 263.328C984.835 262.262 983.415 261.195 982.349 260.485C981.284 259.774 980.929 259.063 980.218 258.353C979.863 257.642 979.508 256.576 979.508 255.51C979.508 253.733 980.218 252.311 981.639 251.245C983.059 250.179 984.835 249.468 986.966 249.468C988.387 249.468 989.807 249.824 991.228 250.534C991.938 250.89 992.293 250.89 992.648 250.89C993.004 250.89 993.359 250.89 993.359 250.534C993.714 250.179 993.714 249.824 993.714 249.468H994.424V249.113ZM1021.06 249.468L1021.42 255.154H1020.71C1020.71 254.088 1020.35 253.377 1020 253.022C1019.64 252.311 1019.28 251.956 1018.57 251.601C1017.86 251.245 1017.15 251.245 1016.09 251.245H1012.54V269.369C1012.54 270.79 1012.54 271.857 1012.89 272.212C1013.25 272.567 1013.96 272.923 1015.02 272.923H1015.73V273.633H1005.08V272.923H1006.14C1007.21 272.923 1007.92 272.567 1008.28 271.857C1008.63 271.501 1008.63 270.79 1008.63 269.369V251.245H1005.79C1004.72 251.245 1003.66 251.245 1003.3 251.601C1002.59 251.956 1002.24 252.311 1001.53 253.022C1001.17 253.733 1000.82 254.444 1000.82 255.51H1000.11L1000.46 249.824H1021.06V249.468ZM1031.36 260.485H1042.72V253.733C1042.72 252.667 1042.72 251.601 1042.37 251.245C1042.37 250.89 1042.01 250.534 1041.66 250.534C1041.3 250.179 1040.59 250.179 1039.88 250.179H1039.17V249.468H1049.83V250.179H1049.12C1048.41 250.179 1048.05 250.179 1047.34 250.534C1046.99 250.89 1046.63 250.89 1046.63 251.245C1046.63 251.601 1046.28 252.311 1046.28 253.733V269.014C1046.28 270.08 1046.28 271.146 1046.63 271.501C1046.63 271.857 1046.99 272.212 1047.34 272.212C1048.05 272.567 1048.41 272.567 1049.12 272.567H1049.83V273.278H1039.17V272.567H1039.88C1040.95 272.567 1041.66 272.212 1042.01 271.857C1042.37 271.501 1042.37 270.435 1042.37 269.014V261.906H1031V269.014C1031 270.08 1031 271.146 1031.36 271.501C1031.36 271.857 1031.72 272.212 1032.07 272.212C1032.43 272.567 1033.14 272.567 1033.85 272.567H1034.91V273.278H1024.26V272.567H1024.97C1026.03 272.567 1026.74 272.212 1027.1 271.857C1027.45 271.501 1027.45 270.435 1027.45 269.014V253.733C1027.45 252.667 1027.45 251.601 1027.1 251.245C1027.1 250.89 1026.74 250.534 1026.39 250.534C1025.68 250.179 1025.32 250.179 1024.61 250.179H1023.9V249.468H1034.56V250.179H1033.49C1032.78 250.179 1032.43 250.179 1031.72 250.534C1031.36 250.89 1031 250.89 1031 251.245C1031 251.601 1030.65 252.311 1030.65 253.733V260.485H1031.36ZM1059.77 250.89V260.485H1065.1C1066.52 260.485 1067.59 260.129 1067.94 259.774C1068.65 259.063 1069.01 258.353 1069.01 256.931H1069.72V265.105H1069.01C1069.01 264.038 1068.65 263.328 1068.65 262.972C1068.3 262.617 1067.94 262.262 1067.59 261.906C1067.23 261.551 1066.16 261.551 1065.45 261.551H1060.13V269.369C1060.13 270.435 1060.13 271.146 1060.13 271.146C1060.13 271.501 1060.48 271.501 1060.48 271.857C1060.84 271.857 1061.19 272.212 1061.9 272.212H1066.16C1067.59 272.212 1068.65 272.212 1069.36 271.857C1070.07 271.501 1070.78 271.146 1071.14 270.79C1071.85 270.08 1072.56 269.014 1073.62 267.592H1074.33L1072.2 273.633H1053.02V272.923H1053.73C1054.44 272.923 1054.8 272.923 1055.51 272.567C1055.87 272.212 1056.22 272.212 1056.22 271.857C1056.22 271.501 1056.58 270.79 1056.58 269.724V254.088C1056.58 252.667 1056.58 251.601 1056.22 251.245C1055.87 250.89 1055.16 250.534 1054.09 250.534H1053.38V249.824H1072.56L1072.91 255.154H1072.2C1071.85 253.733 1071.49 253.022 1071.49 252.667C1071.14 252.311 1070.78 251.956 1070.07 251.601C1069.72 251.601 1068.65 251.245 1067.59 251.245H1059.77V250.89ZM1097.77 249.468L1098.13 255.154H1097.42C1097.42 254.088 1097.06 253.377 1096.71 253.022C1096.35 252.311 1096 251.956 1095.29 251.601C1094.58 251.245 1093.87 251.245 1092.8 251.245H1089.25V269.369C1089.25 270.79 1089.25 271.857 1089.6 272.212C1089.96 272.567 1090.67 272.923 1091.74 272.923H1092.45V273.633H1081.79V272.923H1082.86C1083.92 272.923 1084.63 272.567 1084.99 271.857C1085.34 271.501 1085.34 270.79 1085.34 269.369V251.245H1082.5C1081.44 251.245 1080.37 251.245 1080.02 251.601C1079.31 251.956 1078.95 252.311 1078.24 253.022C1077.88 253.733 1077.53 254.444 1077.53 255.51H1076.82L1077.17 249.824H1097.77V249.468ZM1111.98 272.923V273.633H1101.32V272.923H1102.04C1103.1 272.923 1103.81 272.567 1104.17 272.212C1104.52 271.857 1104.52 270.79 1104.52 269.369V254.088C1104.52 253.022 1104.52 251.956 1104.17 251.601C1104.17 251.245 1103.81 250.89 1103.46 250.89C1102.75 250.534 1102.39 250.534 1101.68 250.534H1100.97V249.824H1111.62V250.534H1110.56C1109.49 250.534 1108.78 250.89 1108.43 251.245C1108.07 251.601 1108.07 252.667 1108.07 254.088V269.369C1108.07 270.435 1108.07 271.501 1108.43 271.857C1108.43 272.212 1108.78 272.567 1109.14 272.567C1109.49 272.923 1110.2 272.923 1110.91 272.923H1111.98ZM1136.84 249.113L1137.55 257.286H1136.84C1136.13 254.799 1135.06 253.022 1133.64 251.956C1132.22 250.89 1130.45 250.179 1128.67 250.179C1126.9 250.179 1125.48 250.534 1124.05 251.245C1122.63 251.956 1121.57 253.377 1120.86 255.154C1120.15 256.931 1119.79 259.063 1119.79 261.551C1119.79 263.683 1120.15 265.46 1120.86 267.237C1121.57 268.658 1122.63 270.08 1124.05 270.79C1125.48 271.501 1127.25 272.212 1129.03 272.212C1130.8 272.212 1132.22 271.857 1133.29 271.146C1134.35 270.435 1135.77 269.014 1137.2 267.237L1137.91 267.592C1136.48 269.724 1135.06 271.146 1133.64 272.212C1131.87 273.278 1130.09 273.633 1127.61 273.633C1123.34 273.633 1120.15 272.212 1118.02 269.369C1116.24 267.237 1115.53 264.749 1115.53 261.551C1115.53 259.063 1116.24 256.931 1117.31 255.154C1118.37 253.022 1119.79 251.601 1121.92 250.534C1123.7 249.468 1125.83 248.758 1128.32 248.758C1130.09 248.758 1131.87 249.113 1133.64 250.179C1134 250.534 1134.35 250.534 1134.71 250.534C1135.06 250.534 1135.42 250.534 1135.42 250.179C1135.77 249.824 1136.13 249.468 1136.13 248.758H1136.84V249.113ZM1191.18 249.113L1191.89 257.286H1191.18C1190.47 254.799 1189.4 253.022 1187.98 251.956C1186.56 250.89 1184.79 250.179 1183.01 250.179C1181.23 250.179 1179.81 250.534 1178.39 251.245C1176.97 251.956 1175.91 253.377 1175.2 255.154C1174.49 256.931 1174.13 259.063 1174.13 261.551C1174.13 263.683 1174.49 265.46 1175.2 267.237C1175.91 268.658 1176.97 270.08 1178.39 270.79C1179.81 271.501 1181.59 272.212 1183.36 272.212C1185.14 272.212 1186.56 271.857 1187.63 271.146C1188.69 270.435 1190.11 269.014 1191.53 267.237L1192.24 267.592C1190.82 269.724 1189.4 271.146 1187.98 272.212C1186.21 273.278 1184.43 273.633 1181.94 273.633C1177.68 273.633 1174.49 272.212 1172.36 269.369C1170.58 267.237 1169.87 264.749 1169.87 261.551C1169.87 259.063 1170.58 256.931 1171.64 255.154C1172.71 253.022 1174.13 251.601 1176.26 250.534C1178.04 249.468 1180.17 248.758 1182.65 248.758C1184.43 248.758 1186.21 249.113 1187.98 250.179C1188.34 250.534 1188.69 250.534 1189.05 250.534C1189.4 250.534 1189.76 250.534 1189.76 250.179C1190.11 249.824 1190.47 249.468 1190.47 248.758H1191.18V249.113ZM1202.9 250.89V260.485H1208.23C1209.65 260.485 1210.71 260.129 1211.07 259.774C1211.78 259.063 1212.13 258.353 1212.13 256.931H1212.84V265.105H1212.13C1212.13 264.038 1211.78 263.328 1211.78 262.972C1211.42 262.617 1211.07 262.262 1210.71 261.906C1210.36 261.551 1209.29 261.551 1208.58 261.551H1203.25V269.369C1203.25 270.435 1203.25 271.146 1203.25 271.146C1203.25 271.501 1203.61 271.501 1203.61 271.857C1203.96 271.857 1204.32 272.212 1205.03 272.212H1209.29C1210.71 272.212 1211.78 272.212 1212.49 271.857C1213.2 271.501 1213.91 271.146 1214.26 270.79C1214.97 270.08 1215.68 269.014 1216.75 267.592H1217.46L1215.33 273.633H1196.15V272.923H1196.86C1197.57 272.923 1197.93 272.923 1198.64 272.567C1198.99 272.212 1199.35 272.212 1199.35 271.857C1199.35 271.501 1199.7 270.79 1199.7 269.724V254.088C1199.7 252.667 1199.7 251.601 1199.35 251.245C1198.99 250.89 1198.28 250.534 1197.22 250.534H1196.51V249.824H1215.68L1216.04 255.154H1215.33C1214.97 253.733 1214.62 253.022 1214.62 252.667C1214.26 252.311 1213.91 251.956 1213.2 251.601C1212.84 251.601 1211.78 251.245 1210.71 251.245H1202.9V250.89ZM1218.52 249.468H1225.27L1240.54 267.237V253.377C1240.54 251.956 1240.54 250.89 1240.19 250.534C1239.83 250.179 1239.12 249.824 1238.06 249.824H1237.35V249.113H1246.23V249.824H1245.52C1244.45 249.824 1243.74 250.179 1243.39 250.89C1243.03 251.245 1243.03 251.956 1243.03 253.377V273.633H1242.32L1225.98 254.443V269.014C1225.98 270.435 1225.98 271.501 1226.34 271.857C1226.69 272.212 1227.4 272.567 1228.47 272.567H1229.18V273.278H1220.3V272.567H1221.01C1222.08 272.567 1222.79 272.212 1223.14 271.501C1223.5 271.146 1223.5 270.435 1223.5 269.014V252.311C1222.79 251.601 1222.08 250.89 1221.72 250.534C1221.37 250.179 1220.66 250.179 1219.95 249.824C1219.59 249.824 1218.88 249.824 1218.17 249.824V249.468H1218.52ZM1269.31 249.468L1269.67 255.154H1268.96C1268.96 254.088 1268.6 253.377 1268.25 253.022C1267.89 252.311 1267.54 251.956 1266.83 251.601C1266.12 251.245 1265.4 251.245 1264.34 251.245H1260.79V269.369C1260.79 270.79 1260.79 271.857 1261.14 272.212C1261.5 272.567 1262.21 272.923 1263.27 272.923H1263.98V273.633H1253.33V272.923H1254.4C1255.46 272.923 1256.17 272.567 1256.53 271.857C1256.88 271.501 1256.88 270.79 1256.88 269.369V251.245H1254.04C1252.97 251.245 1251.91 251.245 1251.55 251.601C1250.84 251.956 1250.49 252.311 1249.78 253.022C1249.42 253.733 1249.07 254.444 1249.07 255.51H1248.36L1248.71 249.824H1269.31V249.468ZM1279.61 250.89V260.485H1284.94C1286.36 260.485 1287.42 260.129 1287.78 259.774C1288.49 259.063 1288.84 258.353 1288.84 256.931H1289.56V265.105H1288.84C1288.84 264.038 1288.49 263.328 1288.49 262.972C1288.13 262.617 1287.78 262.262 1287.42 261.906C1287.07 261.551 1286 261.551 1285.29 261.551H1279.97V269.369C1279.97 270.435 1279.97 271.146 1279.97 271.146C1279.97 271.501 1280.32 271.501 1280.32 271.857C1280.68 271.857 1281.03 272.212 1281.74 272.212H1286C1287.42 272.212 1288.49 272.212 1289.2 271.857C1289.91 271.501 1290.27 271.146 1290.98 270.79C1291.69 270.08 1292.4 269.014 1293.46 267.592H1294.17L1292.04 273.633H1272.86V272.923H1273.57C1274.28 272.923 1274.64 272.923 1275.35 272.567C1275.7 272.212 1276.06 272.212 1276.06 271.857C1276.06 271.501 1276.41 270.79 1276.41 269.724V254.088C1276.41 252.667 1276.41 251.601 1276.06 251.245C1275.7 250.89 1274.99 250.534 1273.93 250.534H1273.22V249.824H1292.4L1292.75 255.154H1292.04C1291.69 253.733 1291.33 253.022 1291.33 252.667C1290.98 252.311 1290.62 251.956 1289.91 251.601C1289.56 251.601 1288.49 251.245 1287.42 251.245H1279.61V250.89ZM1321.16 273.278H1314.42L1305.89 262.262C1305.18 262.262 1304.83 262.262 1304.47 262.262H1304.12C1303.76 262.262 1303.76 262.262 1303.41 262.262V269.369C1303.41 270.79 1303.41 271.857 1303.76 272.212C1304.12 272.567 1304.83 272.923 1305.89 272.923H1306.96V273.633H1296.3V272.923H1297.37C1298.43 272.923 1299.14 272.567 1299.5 271.857C1299.85 271.501 1299.85 270.79 1299.85 269.369V254.088C1299.85 252.667 1299.85 251.601 1299.5 251.245C1299.14 250.89 1298.43 250.534 1297.37 250.534H1296.3V249.824H1305.18C1307.67 249.824 1309.8 250.179 1310.86 250.534C1312.28 250.89 1313.35 251.601 1314.06 252.667C1314.77 253.733 1315.48 254.799 1315.48 256.22C1315.48 257.642 1315.13 259.063 1314.06 260.129C1313 261.195 1311.57 261.906 1309.44 262.262L1314.42 269.014C1315.48 270.435 1316.55 271.501 1317.61 272.212C1318.32 272.567 1319.39 272.923 1320.81 273.278H1321.16ZM1303.76 261.195C1304.12 261.195 1304.12 261.195 1304.47 261.195H1304.83C1307.31 261.195 1309.09 260.84 1310.15 259.774C1311.22 258.708 1311.93 257.642 1311.93 255.865C1311.93 254.443 1311.57 253.022 1310.51 252.311C1309.44 251.245 1308.38 250.89 1306.6 250.89C1305.89 250.89 1304.83 250.89 1303.76 251.245V261.195ZM620.805 458.425C620.805 456.293 620.095 454.16 618.319 451.673C616.543 449.185 614.412 447.053 612.281 444.921C609.795 442.789 607.664 441.012 605.178 439.59C602.692 438.169 600.916 437.458 599.496 437.458C598.075 437.458 596.655 438.169 594.879 439.59C593.103 441.012 591.682 442.789 589.907 444.565C588.486 446.342 587.065 448.474 585.645 450.251C584.579 452.383 583.869 453.805 583.869 454.871C583.869 456.648 584.224 459.846 585.29 464.466C586 469.086 587.065 472.284 587.421 474.416C587.776 476.193 589.196 477.615 591.682 479.036C594.169 480.458 597.365 481.168 601.271 481.168C603.758 481.168 605.888 480.458 608.375 478.681C610.861 476.904 612.992 475.127 614.412 472.995C616.188 470.863 617.608 468.375 618.674 465.887C620.45 462.689 620.805 460.557 620.805 458.425Z" fill="#FFFFFF"/>
</svg>
